<?xml version="1.0" encoding="utf-8"?>
<!-- Generator: Adobe Illustrator 23.0.5, SVG Export Plug-In . SVG Version: 6.00 Build 0)  -->
<svg version="1.1" id="Layer_1" xmlns="http://www.w3.org/2000/svg" xmlns:xlink="http://www.w3.org/1999/xlink" x="0px" y="0px"
	 viewBox="0 0 800 800" style="enable-background:new 0 0 800 800;" xml:space="preserve">
<style type="text/css">
	.st0{fill:#4C4C4C;stroke:#FFFFFF;stroke-width:20;stroke-miterlimit:10;}
	.st1{fill:#FF7452;stroke:#FFFFFF;stroke-width:20;stroke-miterlimit:10;}
	.st2{fill:#E24642;stroke:#FFFFFF;stroke-width:20;stroke-miterlimit:10;}
	.st3{fill:#5AC779;stroke:#FFFFFF;stroke-width:20;stroke-miterlimit:10;}
	.st4{fill:#00A085;stroke:#FFFFFF;stroke-width:20;stroke-miterlimit:10;}
	.st5{fill:#FFD652;stroke:#FFFFFF;stroke-width:20;stroke-miterlimit:10;}
	.st6{fill:#FB9D46;stroke:#FFFFFF;stroke-width:20;stroke-miterlimit:10;}
	.st7{fill:#666666;stroke:#FFFFFF;stroke-width:20;stroke-miterlimit:10;}
	.st8{fill:#458FDE;stroke:#FFFFFF;stroke-width:20;stroke-miterlimit:10;}
	.st9{fill:#4F5AA8;stroke:#FFFFFF;stroke-width:20;stroke-miterlimit:10;}
	.st10{fill:#808080;stroke:#FFFFFF;stroke-width:20;stroke-miterlimit:10;}
	.st11{fill:#CCCCCC;stroke:#FFFFFF;stroke-width:20;stroke-miterlimit:10;}
	.st12{fill:#FFFFFF;stroke:#FFFFFF;stroke-width:20;stroke-miterlimit:10;}
	.st13{fill:#4C4C4C;}
	.st14{fill:#FF7452;}
	.st15{fill:#E24642;}
	.st16{fill:#5AC779;}
	.st17{fill:#00A085;}
	.st18{fill:#FFD652;}
	.st19{fill:#FB9D46;}
	.st20{fill:#666666;}
	.st21{fill:#458FDE;}
	.st22{fill:#4F5AA8;}
	.st23{fill:#808080;}
	.st24{fill:#CCCCCC;}
	.st25{fill:#FFFFFF;}
</style>
<g>
	<g>
		<path class="st0" d="M391.5,95.1H140.1c-7,0-12.7-5.7-12.7-12.7c0-7,5.7-12.7,12.7-12.7h251.4c7,0,12.7,5.7,12.7,12.7
			C404.2,89.4,398.5,95.1,391.5,95.1z"/>
		<path class="st0" d="M717.6,95.1H524c-7,0-12.7-5.7-12.7-12.7c0-7,5.7-12.7,12.7-12.7h193.6c7,0,12.7,5.7,12.7,12.7
			C730.4,89.4,724.7,95.1,717.6,95.1z"/>
		<path class="st0" d="M541,414.4H398.3c-7,0-12.7-5.7-12.7-12.7c0-7,5.7-12.7,12.7-12.7H541c7,0,12.7,5.7,12.7,12.7
			C553.7,408.7,548,414.4,541,414.4z"/>
		<path class="st0" d="M717.6,414.4h-47.6c-7,0-12.7-5.7-12.7-12.7c0-7,5.7-12.7,12.7-12.7h47.6c7,0,12.7,5.7,12.7,12.7
			C730.4,408.7,724.7,414.4,717.6,414.4z"/>
		<path class="st0" d="M293,733.8H140.1c-7,0-12.7-5.7-12.7-12.7c0-7,5.7-12.7,12.7-12.7H293c7,0,12.7,5.7,12.7,12.7
			C305.7,728.1,300,733.8,293,733.8z"/>
		<path class="st0" d="M717.6,733.8H428.9c-7,0-12.7-5.7-12.7-12.7c0-7,5.7-12.7,12.7-12.7h288.8c7,0,12.7,5.7,12.7,12.7
			C730.4,728.1,724.7,733.8,717.6,733.8z"/>
	</g>
	<circle class="st1" cx="456.1" cy="82.4" r="71.3"/>
	<path class="st2" d="M481.5,128.2c-39.4,0-71.3-31.9-71.3-71.3c0-13.2,3.6-25.5,9.8-36.1c-21.1,12.4-35.3,35.3-35.3,61.5
		c0,39.4,31.9,71.3,71.3,71.3c26.2,0,49.2-14.2,61.5-35.3C507,124.6,494.7,128.2,481.5,128.2z"/>
	<circle class="st3" cx="360.9" cy="717.6" r="71.3"/>
	<path class="st4" d="M388.1,761.8c-39.4,0-71.3-31.9-71.3-71.3c0-12.7,3.3-24.6,9.2-35c-21.7,12.2-36.4,35.5-36.4,62.2
		c0,39.4,31.9,71.3,71.3,71.3c26.7,0,49.9-14.7,62.2-36.4C412.8,758.5,400.8,761.8,388.1,761.8z"/>
	<circle class="st5" cx="605.5" cy="391.5" r="71.3"/>
	<path class="st6" d="M632.7,435.7c-39.4,0-71.3-31.9-71.3-71.3c0-12.7,3.3-24.6,9.2-35c-21.7,12.2-36.4,35.5-36.4,62.2
		c0,39.4,31.9,71.3,71.3,71.3c26.7,0,49.9-14.7,62.2-36.4C657.4,432.3,645.4,435.7,632.7,435.7z"/>
	<path class="st7" d="M449.3,518.1c-3.3,0-6.5-1.2-9-3.7l-74.7-74.7c-5-5-5-13,0-18c5-5,13-5,18,0l74.7,74.7c5,5,5,13,0,18
		C455.8,516.8,452.5,518.1,449.3,518.1z"/>
	<path class="st8" d="M615.6,596L509.9,490.3c-14.9-14.9-39.1-14.9-54.1,0l-21.6,21.6c-14.9,14.9-14.9,39.1,0,54.1l105.7,105.7
		c7.5,7.5,17.2,11.2,27,11.2c9.8,0,19.6-3.7,27-11.2l21.6-21.6C630.5,635.1,630.5,610.9,615.6,596z"/>
	<path class="st9" d="M589.9,659.8c-9.8,0-19.6-3.7-27-11.2L457.2,542.9c-14.7-14.7-14.9-38.4-0.7-53.3c-0.2,0.2-0.5,0.4-0.7,0.7
		l-21.6,21.6c-14.9,14.9-14.9,39.1,0,54.1l105.7,105.7c7.5,7.5,17.2,11.2,27,11.2c9.8,0,19.6-3.7,27-11.2l21.6-21.6
		c0.2-0.2,0.4-0.5,0.7-0.7C608.9,656.3,599.4,659.8,589.9,659.8z"/>
	<path class="st10" d="M381.3,179.2c-34.5-34.5-80.3-53.5-129.1-53.5s-94.6,19-129.1,53.5s-53.5,80.3-53.5,129.1s19,94.6,53.5,129.1
		s80.3,53.5,129.1,53.5s94.6-19,129.1-53.5s53.5-80.3,53.5-129.1S415.8,213.7,381.3,179.2z"/>
	<path class="st7" d="M300.6,442.5c-48.8,0-94.6-19-129.1-53.5S118,308.6,118,259.9c0-37.2,11-72.6,31.5-102.7
		c-9.4,6.4-18.3,13.7-26.5,22c-34.5,34.5-53.5,80.3-53.5,129.1s19,94.6,53.5,129.1s80.3,53.5,129.1,53.5s94.6-19,129.1-53.5
		c8.2-8.2,15.5-17.1,22-26.5C373.3,431.4,337.8,442.5,300.6,442.5z"/>
	<circle class="st11" cx="252.2" cy="308.3" r="108.7"/>
	<g>
		<path class="st12" d="M339.3,243.3L187.2,395.4c5.2,3.9,10.6,7.2,16.3,10l145.9-145.9C346.5,253.9,343.2,248.5,339.3,243.3z"/>
		<path class="st12" d="M355.3,274L217.9,411.4c13.7,4.5,28.1,6.3,42.3,5.3l100.4-100.4C361.6,302,359.9,287.6,355.3,274z"/>
	</g>
</g>
<g>
	<g>
		<path class="st13" d="M393.2,94.9H141.8c-7,0-12.7-5.7-12.7-12.7s5.7-12.7,12.7-12.7h251.4c7,0,12.7,5.7,12.7,12.7
			S400.3,94.9,393.2,94.9z"/>
		<path class="st13" d="M719.4,94.9H525.7c-7,0-12.7-5.7-12.7-12.7s5.7-12.7,12.7-12.7h193.6c7,0,12.7,5.7,12.7,12.7
			S726.4,94.9,719.4,94.9z"/>
		<path class="st13" d="M542.7,414.2H400c-7,0-12.7-5.7-12.7-12.7c0-7,5.7-12.7,12.7-12.7h142.7c7,0,12.7,5.7,12.7,12.7
			C555.4,408.5,549.7,414.2,542.7,414.2z"/>
		<path class="st13" d="M719.4,414.2h-47.6c-7,0-12.7-5.7-12.7-12.7c0-7,5.7-12.7,12.7-12.7h47.6c7,0,12.7,5.7,12.7,12.7
			C732.1,408.5,726.4,414.2,719.4,414.2z"/>
		<path class="st13" d="M294.7,733.6H141.8c-7,0-12.7-5.7-12.7-12.7c0-7,5.7-12.7,12.7-12.7h152.9c7,0,12.7,5.7,12.7,12.7
			C307.4,727.9,301.7,733.6,294.7,733.6z"/>
		<path class="st13" d="M719.4,733.6H430.6c-7,0-12.7-5.7-12.7-12.7c0-7,5.7-12.7,12.7-12.7h288.8c7,0,12.7,5.7,12.7,12.7
			C732.1,727.9,726.4,733.6,719.4,733.6z"/>
	</g>
	<circle class="st14" cx="457.8" cy="82.1" r="71.3"/>
	<path class="st15" d="M483.2,128c-39.4,0-71.3-31.9-71.3-71.3c0-13.2,3.6-25.5,9.8-36.1c-21.1,12.4-35.3,35.3-35.3,61.5
		c0,39.4,31.9,71.3,71.3,71.3c26.2,0,49.2-14.2,61.5-35.3C508.7,124.4,496.4,128,483.2,128z"/>
	<circle class="st16" cx="362.6" cy="717.4" r="71.3"/>
	<path class="st17" d="M389.8,761.6c-39.4,0-71.3-31.9-71.3-71.3c0-12.7,3.3-24.6,9.2-35c-21.7,12.2-36.4,35.5-36.4,62.2
		c0,39.4,31.9,71.3,71.3,71.3c26.7,0,49.9-14.7,62.2-36.4C414.5,758.2,402.5,761.6,389.8,761.6z"/>
	<circle class="st18" cx="607.2" cy="391.3" r="71.3"/>
	<path class="st19" d="M634.4,435.4c-39.4,0-71.3-31.9-71.3-71.3c0-12.7,3.3-24.6,9.2-35c-21.7,12.2-36.4,35.5-36.4,62.2
		c0,39.4,31.9,71.3,71.3,71.3c26.7,0,49.9-14.7,62.2-36.4C659.1,432.1,647.1,435.4,634.4,435.4z"/>
	<path class="st20" d="M451,517.8c-3.3,0-6.5-1.2-9-3.7l-74.7-74.7c-5-5-5-13,0-18c5-5,13-5,18,0l74.7,74.7c5,5,5,13,0,18
		C457.5,516.6,454.2,517.8,451,517.8z"/>
	<path class="st21" d="M617.3,595.7L511.6,490c-14.9-14.9-39.1-14.9-54.1,0l-21.6,21.6c-14.9,14.9-14.9,39.1,0,54.1l105.7,105.7
		c7.5,7.5,17.2,11.2,27,11.2c9.8,0,19.6-3.7,27-11.2l21.6-21.6C632.2,634.9,632.2,610.6,617.3,595.7z"/>
	<path class="st22" d="M591.6,659.6c-9.8,0-19.6-3.7-27-11.2L458.9,542.7c-14.7-14.7-14.9-38.4-0.7-53.3c-0.2,0.2-0.5,0.4-0.7,0.7
		l-21.6,21.6c-14.9,14.9-14.9,39.1,0,54.1l105.7,105.7c7.5,7.5,17.2,11.2,27,11.2c9.8,0,19.6-3.7,27-11.2l21.6-21.6
		c0.2-0.2,0.4-0.5,0.7-0.7C610.6,656.1,601.1,659.6,591.6,659.6z"/>
	<path class="st23" d="M383,178.9c-34.5-34.5-80.3-53.5-129.1-53.5s-94.6,19-129.1,53.5s-53.5,80.3-53.5,129.1s19,94.6,53.5,129.1
		s80.3,53.5,129.1,53.5s94.6-19,129.1-53.5s53.5-80.3,53.5-129.1S417.5,213.4,383,178.9z"/>
	<path class="st20" d="M302.3,442.3c-48.8,0-94.6-19-129.1-53.5s-53.5-80.3-53.5-129.1c0-37.2,11-72.6,31.5-102.7
		c-9.4,6.4-18.3,13.7-26.5,22c-34.5,34.5-53.5,80.3-53.5,129.1s19,94.6,53.5,129.1s80.3,53.5,129.1,53.5s94.6-19,129.1-53.5
		c8.2-8.2,15.5-17.1,22-26.5C375,431.2,339.5,442.3,302.3,442.3z"/>
	<circle class="st24" cx="253.9" cy="308.1" r="108.7"/>
	<g>
		<path class="st25" d="M341,243L188.9,395.1c5.2,3.9,10.6,7.2,16.3,10l145.9-145.9C348.2,253.7,344.9,248.2,341,243z"/>
		<path class="st25" d="M357,273.7L219.6,411.2c13.7,4.5,28.1,6.3,42.3,5.3L362.3,316C363.4,301.8,361.6,287.4,357,273.7z"/>
	</g>
</g>
</svg>
