<?xml version="1.0" encoding="utf-8"?>
<!-- Generator: Adobe Illustrator 23.0.5, SVG Export Plug-In . SVG Version: 6.00 Build 0)  -->
<svg version="1.1" id="Слой_1" xmlns="http://www.w3.org/2000/svg" xmlns:xlink="http://www.w3.org/1999/xlink" x="0px" y="0px"
	 viewBox="0 0 64 64" style="enable-background:new 0 0 64 64;" xml:space="preserve">
<style type="text/css">
	.st0{fill:#76C2AF;stroke:#FFFFFF;stroke-width:5;stroke-miterlimit:10;}
	.st1{opacity:0.2;}
	.st2{fill:#231F20;}
	.st3{fill:#4F5D73;}
	.st4{fill:#F5CF87;}
	.st5{fill:#FFFFFF;}
</style>
<g id="Layer_1">
	<g>
		<circle class="st0" cx="32" cy="32" r="29.1"/>
	</g>
	<g class="st1">
		<path class="st2" d="M48.2,44.9L35.4,32.1c-0.9-0.9-2.3-1.3-3.5-0.9l-7.4-7.3l-2.7-5.4l-5.4-2.7l-2.6,2.5l2.7,5.4l5.4,2.7l0,0
			l7.4,7.3c-0.4,1.2,0,2.5,0.9,3.5L43.1,50c1.5,1.5,3.7,1.5,5.2,0C49.7,48.6,49.7,46.4,48.2,44.9z"/>
	</g>
	<g>
		<polygon class="st3" points="34.2,36.8 19.6,22.4 22.2,19.8 36.9,34.3 		"/>
	</g>
	<g>
		<path class="st4" d="M48.2,48.3c-1.5,1.5-3.7,1.5-5.2,0L30.2,35.5c-1.5-1.5-1.5-3.7,0-5.2l0,0c1.5-1.5,3.7-1.5,5.2,0l12.8,12.8
			C49.7,44.5,49.7,46.8,48.2,48.3L48.2,48.3z"/>
	</g>
	<g class="st1">
		<path class="st2" d="M51.3,19.6l-5.9,5.9c-1.5,1.5-3.7,1.5-5.2,0c-1.5-1.5-1.5-3.7,0-5.2l5.9-5.9c-1-0.4-2.1-0.6-3.3-0.6
			c-5,0-9.1,4.1-9.1,9.1c0,1.2,0.3,2.3,0.6,3.3l-10,10c-1.1-0.3-2.2-0.5-3.4-0.5c-5,0-9.1,4.1-9.1,9.1c0,1.2,0.3,2.3,0.6,3.3
			l5.9-5.9c1.5-1.5,3.7-1.5,5.2,0s1.5,3.7,0,5.2l-5.9,5.9c1,0.4,2.2,0.6,3.3,0.6c5,0,9.1-4.1,9.1-9.1c0-1.2-0.3-2.3-0.6-3.3l10-10
			c1,0.4,2.2,0.6,3.3,0.6c5,0,9.1-4.1,9.1-9.1C52,21.7,51.7,20.6,51.3,19.6z"/>
	</g>
	<g>
		
			<rect x="24.2" y="28.4" transform="matrix(0.7071 -0.7071 0.7071 0.7071 -13.2978 31.9605)" class="st5" width="15.5" height="7.3"/>
	</g>
	<g>
		<polygon class="st3" points="22,24.6 16.6,21.9 13.9,16.5 16.4,13.9 21.8,16.7 24.6,22.1 		"/>
	</g>
	<g>
		<g>
			<path class="st5" d="M45.4,23.6c-1.5,1.5-3.7,1.5-5.2,0c-1.5-1.5-1.5-3.7,0-5.2l5.9-5.9c-1-0.3-2.1-0.5-3.3-0.5
				c-5,0-9.1,4.1-9.1,9.1s4.1,9.1,9.1,9.1s9.1-4.1,9.1-9.1c0-1.2-0.3-2.3-0.6-3.3L45.4,23.6z"/>
		</g>
	</g>
	<g>
		<g>
			<path class="st5" d="M18.5,40.4c1.5-1.5,3.7-1.5,5.2,0s1.5,3.7,0,5.2l-5.9,5.9c1,0.4,2.2,0.6,3.3,0.6c5,0,9.1-4.1,9.1-9.1
				s-4.1-9.1-9.1-9.1S12,38,12,43c0,1.2,0.3,2.3,0.6,3.3L18.5,40.4z"/>
		</g>
	</g>
</g>
<g id="Layer_2">
</g>
</svg>
