<?xml version="1.0" encoding="UTF-8"?>
<!DOCTYPE svg PUBLIC "-//W3C//DTD SVG 1.1//EN" "http://www.w3.org/Graphics/SVG/1.1/DTD/svg11.dtd">
<!-- Creator: CorelDRAW -->
<svg xmlns="http://www.w3.org/2000/svg" xml:space="preserve" width="300px" height="182px" style="shape-rendering:geometricPrecision; text-rendering:geometricPrecision; image-rendering:optimizeQuality; fill-rule:evenodd; clip-rule:evenodd"
viewBox="0 0 282.22 166.16">
 <defs>
  <style type="text/css">
   <![CDATA[
    .str1 {stroke:#1F1A17;stroke-width:0.0762}
    .str0 {stroke:white;stroke-width:0.3528}
    .str2 {stroke:white;stroke-width:0.5292}
    .fil4 {fill:#0A0B0C}
    .fil3 {fill:#0078B5}
    .fil2 {fill:#31B0DB}
    .fil5 {fill:#535973}
    .fil7 {fill:#5D6467}
    .fil6 {fill:#9FA7C2}
    .fil0 {fill:white}
    .fil1 {fill:white;fill-rule:nonzero}
   ]]>
  </style>
 </defs>
 <g id="Layer_x0020_1">
  <metadata id="CorelCorpID_0Corel-Layer"/>
  <polygon class="fil0" points="136.122,31.6376 136.668,32.3531 137.188,33.09 137.68,33.8472 138.143,34.6244 138.577,35.4202 138.915,36.1037 147.28,4.2492 209.335,21.047 201.11,50.2541 201.197,50.2541 201.985,50.2748 202.776,50.3364 203.556,50.4381 204.324,50.5782 205.078,50.7566 205.818,50.9714 206.543,51.2221 207.252,51.5075 207.943,51.8266 208.616,52.1782 209.269,52.5613 209.903,52.975 210.514,53.4183 211.104,53.8898 211.67,54.3889 212.212,54.9143 212.73,55.4658 213.22,56.0411 213.684,56.6402 214.119,57.2616 214.525,57.9046 214.902,58.5678 215.247,59.2507 215.561,59.9521 215.841,60.6712 216.087,61.4064 216.297,62.157 216.472,62.922 216.61,63.7005 216.71,64.4906 216.77,65.2921 216.79,66.0915 216.79,82.091 217.083,82.2122 217.413,82.3828 217.725,82.5809 218.017,82.8033 218.289,83.0495 218.539,83.3181 218.766,83.6079 218.968,83.9165 219.143,84.243 219.29,84.5859 219.407,84.9439 219.493,85.3143 219.546,85.6963 219.563,86.0648 219.563,112.724 219.546,113.093 219.493,113.475 219.407,113.845 219.29,114.203 219.143,114.546 218.968,114.873 218.766,115.181 218.539,115.471 218.289,115.739 218.017,115.985 217.725,116.208 217.413,116.406 217.083,116.577 216.79,116.698 216.79,135.683 216.77,136.483 216.71,137.284 216.61,138.075 216.472,138.853 216.297,139.618 216.087,140.369 215.841,141.104 215.561,141.823 215.247,142.524 214.902,143.207 214.525,143.871 214.119,144.514 213.684,145.135 213.22,145.734 212.729,146.309 212.212,146.86 211.67,147.386 211.104,147.885 210.514,148.357 209.903,148.8 209.269,149.214 208.616,149.597 207.943,149.949 207.252,150.267 206.543,150.553 205.818,150.804 205.078,151.019 204.324,151.197 203.556,151.337 202.776,151.438 201.985,151.5 201.197,151.52 89.53,151.52 88.7419,151.5 87.9513,151.438 87.1717,151.337 86.4037,151.197 85.6495,151.019 84.909,150.804 84.184,150.553 83.4753,150.267 82.7842,149.949 82.1112,149.597 81.4579,149.214 80.8246,148.8 80.213,148.357 79.6233,147.885 79.0571,147.386 78.5147,146.86 77.9978,146.309 77.507,145.734 77.0436,145.135 76.608,144.514 76.2017,143.871 75.8252,143.207 75.48,142.524 75.1666,141.823 74.8867,141.104 74.6406,140.369 74.4298,139.618 74.2548,138.853 74.1172,138.075 74.0176,137.284 73.9571,136.483 73.9369,135.683 73.9369,66.0915 73.9571,65.2921 74.0176,64.4906 74.1172,63.7005 74.2548,62.922 74.4298,62.157 74.6406,61.4064 74.8867,60.6712 75.1666,59.9521 75.48,59.2507 75.8252,58.5678 76.2017,57.9046 76.6078,57.2616 77.0436,56.6402 77.507,56.0411 77.9977,55.4658 78.5147,54.9143 79.0571,54.3889 79.6233,53.8898 80.2129,53.4183 80.8246,52.975 81.4581,52.5613 82.1112,52.1782 82.7842,51.8266 83.4753,51.5075 84.1842,51.2221 84.909,50.9714 85.6494,50.7566 86.4037,50.5782 87.1717,50.4381 87.9511,50.3364 88.7418,50.2748 89.5298,50.2541 94.6518,50.2541 94.6322,50.1407 94.606,49.9811 94.5808,49.8217 94.5568,49.662 94.5334,49.5009 94.5116,49.3404 94.4906,49.1795 94.4707,49.018 94.4517,48.8557 94.4342,48.6931 94.4176,48.5301 94.4024,48.3679 94.388,48.205 94.3749,48.0413 94.3627,47.8774 94.3519,47.7131 94.3419,47.5484 94.3335,47.3839 94.3259,47.2192 94.3196,47.0539 94.3141,46.8877 94.3103,46.722 94.3073,46.5567 94.3054,46.3904 94.3047,46.2129 94.335,45.017 94.4257,43.8266 94.5748,42.6532 94.7811,41.4979 95.0433,40.3633 95.3594,39.25 95.7282,38.1601 96.1483,37.0945 96.6184,36.0556 97.1365,35.0443 97.7012,34.0623 98.3111,33.1105 98.9651,32.1913 99.6611,31.3054 100.398,30.4546 101.174,29.6399 101.989,28.8637 102.84,28.1266 103.726,27.4305 104.645,26.7766 105.597,26.1667 106.579,25.602 107.59,25.0839 108.629,24.6138 109.695,24.1937 110.785,23.8249 111.898,23.5087 113.032,23.2466 114.188,23.0403 115.361,22.8912 116.552,22.8005 117.755,22.7699 118.722,22.7896 119.678,22.8477 120.622,22.9437 121.556,23.0765 122.477,23.2457 123.386,23.4504 124.281,23.6901 125.161,23.9635 126.027,24.2705 126.876,24.6098 127.709,24.9813 128.524,25.3834 129.321,25.816 130.099,26.2777 130.857,26.7684 131.594,27.2868 132.311,27.8328 133.005,28.4052 133.677,29.0033 134.325,29.6261 134.949,30.2735 135.548,30.9442 "/>
  <path class="fil1 str0" d="M117.757 21.6353l0.0029 0 0 0.008c2.4157,0.0003 4.7447,0.3468 6.9395,0.9922 1.2708,0.3735 2.4842,0.8386 3.6311,1.386 4.1958,2.0027 7.7359,5.1636 10.2074,9.0692l7.408 -28.2115 0.5306 -2.0203 2.0087 0.5437 60.2207 16.301 2.0279 0.549 -0.5675 2.0147 -7.5817 26.9199c4.0567,0.3441 7.7109,2.1685 10.4329,4.936 3.0224,3.0727 4.8987,7.3129 4.8992,11.978l0.0081 0 0 0.0022 0 15.2695c0.0869,0.048 0.1706,0.0975 0.2519,0.1488 1.5117,0.9579 2.5206,2.6481 2.5206,4.5647l0 26.6159 0 0.0054 -0.0081 0c-0.0007,0.3837 -0.0385,0.7493 -0.1101,1.0925 -0.0739,0.3549 -0.1816,0.6944 -0.3188,1.0147 -0.4713,1.0993 -1.2984,2.0141 -2.3355,2.597l0 18.2592 0 0.001 -0.0081 0c-0.0002,4.666 -1.877,8.9067 -4.8999,11.9799 -3.0313,3.0814 -7.2187,4.9946 -11.8301,4.9952l0 0.0081 -0.0021 0 -111.643 0 -0.0011 0 0 -0.0081c-4.6121,-0.0003 -8.8003,-1.9137 -11.8318,-4.996 -3.0224,-3.0728 -4.8986,-7.313 -4.8992,-11.9779l-0.0081 0 0 -0.0022 0 -69.5677 0 -0.001 0.0081 0c0.0003,-4.666 1.8768,-8.9069 4.9,-11.9799 3.0312,-3.0817 7.2185,-4.9947 11.83,-4.9953l0 -0.008 0.0021 0 3.8033 0c-0.1157,-0.9639 -0.1757,-1.9309 -0.1757,-2.8964l0 -0.0011 0.0081 0c0.0003,-6.7935 2.7501,-12.9399 7.1947,-17.3844 4.4443,-4.4442 10.5899,-7.1934 17.3825,-7.194l0 -0.008 0.0022 0zm0.0029 4.1456l0 0.0081 -0.0029 0 -0.0022 0 0 -0.0081c-5.635,0.0005 -10.7433,2.2911 -14.4457,5.9933 -3.7028,3.7026 -5.9938,8.8116 -5.9939,14.4475l0.008 0 0 0.0011c0,1.1442 0.0881,2.2401 0.2566,3.283 0.0221,0.137 0.0602,0.3448 0.1129,0.6179 0.0499,0.2586 0.0917,0.4624 0.1251,0.6106l0.0081 0.0081 0.0016 0.0074 0.5552 2.5231 -2.5834 0 -6.2574 0 -0.0021 0 0 -0.0081c-3.4511,0.0005 -6.594,1.4412 -8.877,3.7622 -2.2923,2.3301 -3.7153,5.5431 -3.7154,9.0754l0.0081 0 0 0.001 0 69.5677 0 0.0022 -0.0081 0c0.0004,3.5313 1.4231,6.7437 3.7147,9.0735 2.2832,2.3215 5.4269,3.7627 8.8787,3.7628l0 -0.0081 0.0011 0 111.643 0 0.0021 0 0 0.0081c3.4511,-0.0004 6.5941,-1.4413 8.877,-3.7621 2.2921,-2.3302 3.7153,-5.543 3.7155,-9.0754l-0.0081 0 0 -0.001 0 -19.689 0 -1.7499 1.7361 -0.2946c0.4221,-0.0716 0.7748,-0.3593 0.9402,-0.7452 0.0334,-0.078 0.059,-0.1574 0.0754,-0.2358 0.0187,-0.0899 0.0288,-0.1738 0.0288,-0.2489l-0.0081 0 0 -0.0054 0 -26.6159c0,-0.4431 -0.236,-0.8358 -0.5899,-1.06 -0.0824,-0.0521 -0.1539,-0.0905 -0.2125,-0.1131 -0.0645,-0.0249 -0.1436,-0.046 -0.2368,-0.0619l-0.0052 -0.0008 -1.728 -0.2962 0 -1.7484 0 -16.7026 0 -0.0022 0.0081 0c-0.0005,-3.5315 -1.4231,-6.7438 -3.7148,-9.0735 -2.2832,-2.3215 -5.4269,-3.7627 -8.8787,-3.7629l0 0.0081 -0.0011 0 -1.3191 0 -2.7384 0 0.7426 -2.6366 7.7376 -27.4737 -56.1841 -15.2084 -8.3114 31.6515 -1.7635 6.7167 -2.2036 -6.5868c-1.7644,-5.2746 -5.6272,-9.5931 -10.5989,-11.9659 -0.9813,-0.4684 -1.989,-0.8574 -3.0147,-1.1588 -1.836,-0.5399 -3.7733,-0.8298 -5.7712,-0.83z"/>
  <g id="_217444384">
   <path id="_217444288" class="fil2" d="M117.235 23.7121c12.4301,0 22.5106,10.0805 22.5106,22.5107 0,12.4301 -10.0805,22.5106 -22.5106,22.5106 -12.4301,0 -22.5106,-10.0805 -22.5106,-22.5106 0,-12.4302 10.0805,-22.5107 22.5106,-22.5107z"/>
   <path id="_217444312" class="fil3" d="M117.235 29.084c9.4638,0 17.1387,7.6749 17.1387,17.1388 0,9.4638 -7.6749,17.1387 -17.1387,17.1387 -9.4638,0 -17.1388,-7.6749 -17.1388,-17.1387 0,-9.4639 7.675,-17.1388 17.1388,-17.1388z"/>
  </g>
  <polygon class="fil0 str1" points="148.409,6.9001 205.952,22.4046 187.013,86.5755 132.583,70.592 "/>
  <path class="fil4" d="M207.648 21.7075l-19.2205 68.246c4.246,1.2578 -47.8204,-14.1677 -58.6391,-17.3729 -0.0002,0 -0.0002,0 0,-0.0002 5.8796,-22.3914 11.7592,-44.7826 17.6389,-67.1739l60.2207 16.301zm-54.1574 -8.4831l16.3987 4.7082 -4.7082 16.3987 -16.399 -4.708 4.7085 -16.3989zm9.0293 28.741l-0.9177 3.1963 -15.8585 -4.5532 0.9178 -3.1964 15.8584 4.5533zm10.1054 -22.9139l3.196 0.9177 -4.553 15.8585 -3.1964 -0.9177 4.5534 -15.8585zm15.8338 30.3614l-0.9174 3.1965 -14.937 -4.2887 -5.3296 18.5633 -3.1962 -0.9179 6.8123 -23.7261 -23.7268 -6.8126 0.8473 -2.9504 46.1006 13.2362 -0.8472 2.9506 -19.1777 -5.5064 -0.5647 1.9669 14.9364 4.2886zm-13.4252 -18.359l3.1965 0.9178 -1.553 5.4089 -3.1963 -0.9178 1.5528 -5.4089zm3.0005 -10.4495l3.1963 0.9178 -2.2945 7.9907 -3.1964 -0.9177 2.2946 -7.9908zm-12.9596 22.4272l3.1961 0.9179 -4.5529 15.8582 -3.1964 -0.9179 4.5532 -15.8582zm9.6896 8.1042l16.3988 4.7085 -4.7084 16.3988 -16.3987 -4.7085 4.7083 -16.3988zm3.8786 6.8957l5.5742 1.6006 -1.6411 5.7151 -5.5739 -1.6004 1.6408 -5.7153zm-1.9789 -3.4656l11.0691 3.1781 -3.1781 11.069 -11.0691 -3.1781 3.1781 -11.069zm-31.6093 -11.9601l16.3988 4.708 -4.7085 16.3993 -16.3988 -4.7089 4.7085 -16.3984zm3.8786 6.8954l5.5739 1.6004 -1.6408 5.7155 -5.574 -1.6005 1.6409 -5.7154zm-1.979 -3.4652l11.0692 3.1776 -3.1784 11.0693 -11.0692 -3.1784 3.1784 -11.0685zm36.2458 -24.2814l16.399 4.7084 -4.7085 16.3987 -16.3989 -4.7085 4.7084 -16.3986zm3.8787 6.8958l5.574 1.6005 -1.641 5.7152 -5.5741 -1.6006 1.6411 -5.7151zm-1.9789 -3.4659l11.0693 3.1782 -3.1786 11.0689 -11.069 -3.1779 3.1783 -11.0692zm-27.7309 -5.0645l5.5743 1.6003 -1.641 5.7155 -5.5741 -1.6006 1.6408 -5.7152zm-1.979 -3.4657l11.0693 3.1781 -3.178 11.069 -11.0692 -3.1778 3.1779 -11.0693zm49.4635 7.1339l-17.8407 62.7873c3.9414,1.1573 -44.3879,-13.0344 -54.4301,-15.9835 -0.0002,0 -0.0002,0 0,0 5.4575,-20.6015 10.9153,-41.2005 16.373,-61.8016l55.8978 14.9978z"/>
  <path class="fil5" d="M89.0197 51.196l111.643 0c8.0649,0 14.6634,6.7083 14.6634,14.9074l0 69.5677c0,8.199 -6.5985,14.9073 -14.6634,14.9073l-111.643 0c-8.0649,0 -14.6633,-6.7083 -14.6633,-14.9073l0 -69.5677c0,-8.1991 6.5984,-14.9074 14.6633,-14.9074z"/>
  <path class="fil6" d="M158.178 116.029c-9.0723,0 -16.4295,-7.4492 -16.4295,-16.6348 0,-9.1857 7.3572,-16.6349 16.4295,-16.6349 0.1731,0 0.3453,0.0037 0.517,0.0092 0.0801,-0.0059 0.1612,-0.0092 0.2427,-0.0092l55.8334 0c1.8299,0 3.3269,1.497 3.3269,3.3269l0 26.6159c0,1.8299 -1.497,3.3269 -3.3269,3.3269l-55.8334 0c-0.0822,0 -0.1642,-0.003 -0.2452,-0.0089 -0.1708,0.0053 -0.3423,0.0089 -0.5145,0.0089z"/>
  <path class="fil7" d="M156.891 94.2759c3.0619,0 5.545,2.4832 5.545,5.545 0,3.0618 -2.4831,5.5449 -5.545,5.5449 -3.0618,0 -5.5449,-2.4831 -5.5449,-5.5449 0,-3.0618 2.4831,-5.545 5.5449,-5.545z"/>
  <g id="_217450000">
   <path id="_217450624" class="fil2 str2" d="M92.2986 77.9599l12.3061 -0.0615c0,0 -1.4152,1.5383 -1.2306,4.5533 0.1846,3.015 0.0616,5.5993 0.0616,5.5993l-21.7344 21.7913 0.0139 -1.5476 7.573 -7.6061 -0.0047 -2.1158 4.1841 -4.061 -0.0615 -13.2907c0,0 -0.123,-2.5228 -1.1075,-3.2612z"/>
   <polygon id="_217451248" class="fil3 str2" points="103.449,91.497 103.449,99.2769 81.7865,120.936 81.7506,119.394 89.2829,111.969 89.2829,109.853 93.4795,105.728 93.4078,101.46 "/>
   <path id="_217450600" class="fil4 str2" d="M95.0577 111.037l8.3932 -8.3573c0,0 0.3946,5.8959 6.4204,6.9943l0 11.3703c0,0 -10.33,-0.287 -14.8136,-10.0073z"/>
   <path id="_217450648" class="fil4 str2" d="M118.605 87.4173l10.0072 -9.8997 0 28.1387c0.1435,4.089 -4.6629,14.419 -16.3559,15.3337 -0.0359,-3.7841 -0.0718,-7.5682 -0.1076,-11.3523 5.3623,-0.7891 6.6311,-5.5584 6.5594,-7.3698l-0.1031 -14.8506z"/>
  </g>
 </g>
</svg>
